<svg width="200" height="28" viewBox="0 0 200 28" fill="none" xmlns="http://www.w3.org/2000/svg">
<path d="M20.7839 2.68982e-06C22.9692 2.68982e-06 24.8988 0.244109 26.5727 0.732322C28.2698 1.19729 29.7228 1.84823 30.9317 2.68517C32.1406 3.5221 33.1287 4.49853 33.8959 5.61444C34.6631 6.70711 35.2326 7.88114 35.6046 9.13654C35.9766 10.3919 36.1626 11.6706 36.1626 12.9725C36.1626 14.6231 35.8603 16.2389 35.2559 17.8197C34.6747 19.3774 33.7564 20.7839 32.501 22.0393C31.2688 23.2947 29.6763 24.2944 27.7235 25.0383C25.7939 25.7822 23.4807 26.1542 20.7839 26.1542H-5.4707e-09C-5.4707e-09 24.6663 -5.4707e-09 23.1901 -5.4707e-09 21.7254C-5.4707e-09 20.2376 -5.4707e-09 18.7613 -5.4707e-09 17.2967C-5.4707e-09 15.8088 -5.4707e-09 14.3325 -5.4707e-09 12.8679C-5.4707e-09 11.38 -5.4707e-09 9.89211 -5.4707e-09 8.40423C-5.4707e-09 7.00933 -5.4707e-09 5.61444 -5.4707e-09 4.21955C-5.4707e-09 2.80141 -5.4707e-09 1.39489 -5.4707e-09 2.68982e-06H20.7839ZM17.9941 10.0432H13.8443C13.8443 10.0432 13.8327 10.0432 13.8094 10.0432C13.8094 10.0432 13.8094 10.0548 13.8094 10.0781C13.8094 10.0781 13.8094 10.0897 13.8094 10.113V16.0413C13.8094 16.0645 13.8094 16.0878 13.8094 16.111C13.8327 16.111 13.8443 16.111 13.8443 16.111H18.0638C18.5753 16.111 19.0286 16.0296 19.4239 15.8669C19.8423 15.7042 20.1911 15.4833 20.47 15.2043C20.749 14.9253 20.9582 14.5999 21.0977 14.2279C21.2605 13.8559 21.3418 13.4723 21.3418 13.0771C21.3418 12.5192 21.2024 12.0077 20.9234 11.5427C20.6676 11.0778 20.2957 10.7174 19.8075 10.4617C19.3192 10.1827 18.7148 10.0432 17.9941 10.0432ZM37.2221 26.1542C37.2221 25.0848 37.2221 24.027 37.2221 22.9808C37.2221 21.9114 37.2221 20.8536 37.2221 19.8075C37.2221 18.738 37.2221 17.6803 37.2221 16.6341C37.2221 16.1924 37.2221 15.7507 37.2221 15.3089C37.2221 14.8672 37.2221 14.4255 37.2221 13.9838C38.5705 13.9838 39.9072 13.9838 41.2324 13.9838C42.5808 13.9838 43.9292 13.9838 45.2776 13.9838C46.626 13.9838 47.9627 13.9838 49.2879 13.9838C49.2879 15.3322 49.2879 16.6806 49.2879 18.029C49.2879 19.3774 49.2879 20.7374 49.2879 22.109C49.2879 23.4574 49.2879 24.8058 49.2879 26.1542H37.2221ZM37.2221 13.9838C37.2221 12.4029 37.2221 10.822 37.2221 9.24116C37.2221 7.66028 37.2221 6.09103 37.2221 4.5334H49.2879C49.2879 5.30059 49.2879 6.06778 49.2879 6.83497C49.2879 7.60216 49.2879 8.36935 49.2879 9.13654C49.2879 9.90373 49.2879 10.6709 49.2879 11.4381C49.2879 11.4381 49.2763 11.4497 49.253 11.473C47.2537 11.8915 45.2427 12.3099 43.2201 12.7284C41.2208 13.1469 39.2214 13.5653 37.2221 13.9838ZM79.8968 4.5334C79.3388 6.34676 78.7809 8.16012 78.2229 9.97348C77.6649 11.7636 77.107 13.5537 76.549 15.3438C76.0143 17.1339 75.468 18.9357 74.91 20.749C74.3521 22.5391 73.7941 24.3409 73.2362 26.1542H56.6021C56.1604 24.7128 55.7187 23.2714 55.2769 21.8301C54.8352 20.3887 54.3935 18.9473 53.9518 17.5059C53.5101 16.0645 53.0567 14.6231 52.5918 13.1817C52.1501 11.7403 51.7083 10.299 51.2666 8.85757C50.8249 7.41618 50.3832 5.97479 49.9415 4.5334H62.7396C62.8791 5.34709 63.007 6.16077 63.1232 6.97446C63.2627 7.7649 63.4022 8.56696 63.5417 9.38065C63.6812 10.1943 63.809 11.008 63.9253 11.8217C64.0648 12.6354 64.2042 13.4491 64.3437 14.2628C64.4832 15.0765 64.6111 15.8901 64.7273 16.7038C64.8668 17.4943 65.0063 18.2963 65.1458 19.11C65.169 19.2263 65.1807 19.3193 65.1807 19.389C65.2039 19.4355 65.2272 19.4587 65.2504 19.4587C65.2737 19.4587 65.2853 19.4355 65.2853 19.389C65.3085 19.3193 65.3318 19.2263 65.355 19.11C65.4945 18.2963 65.6224 17.4943 65.7386 16.7038C65.8781 15.8901 66.0176 15.0765 66.1571 14.2628C66.2966 13.4491 66.4244 12.6354 66.5407 11.8217C66.6802 11.008 66.8197 10.1943 66.9592 9.38065C67.0986 8.56696 67.2265 7.7649 67.3427 6.97446C67.4822 6.16077 67.6217 5.34709 67.7612 4.5334H79.8968ZM80.5119 5.7888C82.2091 5.02161 84.0457 4.45203 86.0218 4.08006C88.0211 3.68484 90.0205 3.48723 92.0198 3.48723C93.9726 3.48723 95.8557 3.67322 97.6691 4.04519C99.4825 4.41716 101.098 4.98674 102.516 5.75393C103.958 6.52112 105.097 7.4743 105.934 8.61346C106.771 9.75262 107.189 11.0894 107.189 12.6238C107.189 14.8788 107.189 17.1339 107.189 19.389C107.189 21.6441 107.189 23.8991 107.189 26.1542C106.376 26.1542 105.562 26.1542 104.748 26.1542C103.934 26.1542 103.121 26.1542 102.307 26.1542C101.493 26.1542 100.68 26.1542 99.8661 26.1542C99.0524 26.1542 98.2387 26.1542 97.425 26.1542C96.6113 26.1542 95.7976 26.1542 94.9839 26.1542C94.9839 24.9221 94.9839 23.7015 94.9839 22.4926C94.9839 21.2605 94.9839 20.0399 94.9839 18.831C94.9839 18.4126 94.8445 18.0755 94.5655 17.8197C94.2865 17.564 93.9494 17.3897 93.5542 17.2967C93.159 17.1804 92.7637 17.1223 92.3685 17.1223C91.4851 17.1223 90.8109 17.2967 90.3459 17.6454C89.9042 17.9941 89.6834 18.3893 89.6834 18.831C89.6834 19.2728 89.9158 19.6796 90.3808 20.0516C90.8458 20.4003 91.5083 20.5747 92.3685 20.5747C92.787 20.5747 93.2636 20.4933 93.7983 20.3305C94.333 20.1678 94.7398 19.7493 95.0188 19.0751C94.5306 20.2143 94.0308 21.3535 93.5193 22.4926C93.0311 23.6318 92.5429 24.771 92.0547 25.9101C91.2177 26.3286 90.3343 26.6192 89.4044 26.7819C88.4977 26.9679 87.591 27.0609 86.6843 27.0609C85.5917 27.0609 84.5339 26.9098 83.511 26.6076C82.5113 26.3286 81.6046 25.9101 80.7909 25.3522C80.0005 24.7942 79.3728 24.0968 78.9078 23.2598C78.4429 22.4229 78.2104 21.4465 78.2104 20.3305C78.2104 19.6564 78.3266 18.9938 78.5591 18.3428C78.7916 17.6919 79.1403 17.0758 79.6053 16.4946C80.0702 15.9134 80.6514 15.4019 81.3489 14.9602C82.0696 14.5185 82.9181 14.1814 83.8946 13.9489C84.871 13.6932 85.9869 13.5653 87.2423 13.5653C88.056 13.5653 88.8464 13.6351 89.6136 13.7746C90.3808 13.8908 91.1015 14.0768 91.7757 14.3325C92.4731 14.5882 93.0892 14.9021 93.6239 15.2741C94.1819 15.646 94.6352 16.0645 94.9839 16.5295C94.9839 16.483 94.9839 16.4481 94.9839 16.4249C94.9839 16.3784 94.9839 16.3435 94.9839 16.3202C94.9839 16.2737 94.9839 16.2389 94.9839 16.2156C94.9839 15.4949 94.798 14.8788 94.426 14.3674C94.0773 13.8327 93.5891 13.4026 92.9613 13.0771C92.3569 12.7284 91.6478 12.4727 90.8341 12.3099C90.0437 12.1472 89.2068 12.0658 88.3233 12.0658C86.9517 12.0658 85.5684 12.2402 84.1735 12.5889C82.7786 12.9376 81.5581 13.4491 80.5119 14.1233V5.7888ZM124.295 26.1542C124.295 24.3409 124.295 22.5043 124.295 20.6444C124.295 18.7845 124.295 16.9479 124.295 15.1346C124.295 14.4604 124.121 13.9838 123.772 13.7048C123.447 13.4258 123.052 13.2747 122.587 13.2515C122.122 13.2282 121.692 13.2863 121.296 13.4258C120.924 13.5653 120.692 13.7048 120.599 13.8443L123.389 4.88212C124.226 4.51015 125.121 4.23117 126.074 4.04519C127.027 3.8592 127.969 3.76621 128.899 3.76621C130.201 3.76621 131.409 3.97544 132.525 4.39391C133.664 4.81238 134.583 5.47495 135.28 6.38163C136.001 7.28831 136.361 8.49722 136.361 10.0084V26.1542H124.295ZM108.533 26.1542C108.533 24.6663 108.533 23.1785 108.533 21.6906C108.533 20.1794 108.533 18.6799 108.533 17.192C108.533 15.6809 108.533 14.1814 108.533 12.6935C108.533 11.3219 108.533 9.96185 108.533 8.61346C108.533 7.24182 108.533 5.8818 108.533 4.5334C109.882 4.5334 111.218 4.5334 112.544 4.5334C113.892 4.5334 115.24 4.5334 116.589 4.5334C117.937 4.5334 119.274 4.5334 120.599 4.5334C120.599 5.37034 120.599 6.1724 120.599 6.93959C120.599 7.68353 120.599 8.4391 120.599 9.20629C120.599 9.95023 120.599 10.7058 120.599 11.473C120.599 12.2169 120.599 13.0074 120.599 13.8443C120.599 14.1465 120.599 14.4488 120.599 14.751C120.599 15.03 120.599 15.3322 120.599 15.6577C120.599 17.378 120.599 19.1449 120.599 20.9582C120.599 22.7716 120.599 24.5036 120.599 26.1542H108.533ZM153.062 27.2004C150.877 27.2004 148.831 26.9563 146.925 26.4681C145.041 25.9799 143.379 25.2475 141.938 24.2711C140.52 23.2714 139.404 22.0277 138.59 20.5398C137.776 19.0519 137.37 17.3199 137.37 15.3438C137.37 14.3209 137.474 13.3677 137.683 12.4843C137.916 11.6009 138.241 10.7872 138.66 10.0432C139.078 9.27603 139.578 8.57859 140.159 7.95089C140.764 7.32318 141.438 6.76523 142.182 6.27701C143.135 5.64931 144.181 5.13785 145.32 4.74264C146.46 4.32417 147.68 4.01032 148.982 3.80108C150.307 3.59185 151.667 3.48723 153.062 3.48723C155.736 3.48723 158.142 3.8592 160.281 4.60315C162.443 5.32384 164.221 6.4165 165.616 7.88114C167.034 9.34578 167.918 11.1824 168.266 13.391L157.072 15.3787C157.072 14.751 156.875 14.2395 156.48 13.8443C156.084 13.4491 155.585 13.1701 154.98 13.0074C154.376 12.8214 153.736 12.7284 153.062 12.7284C152.318 12.7284 151.632 12.833 151.005 13.0422C150.4 13.2282 149.924 13.5188 149.575 13.914C149.226 14.286 149.052 14.7626 149.052 15.3438C149.052 15.7855 149.145 16.1691 149.331 16.4946C149.54 16.8201 149.831 17.099 150.203 17.3315C150.575 17.5408 151.005 17.7035 151.493 17.8197C151.981 17.9127 152.504 17.9592 153.062 17.9592C153.713 17.9592 154.341 17.8779 154.945 17.7151C155.573 17.5524 156.084 17.285 156.48 16.9131C156.875 16.5178 157.072 16.0064 157.072 15.3787C159.025 15.6112 160.897 15.8553 162.687 16.111C164.477 16.3435 166.348 16.5876 168.301 16.8433C168.022 19.0984 167.185 21.0047 165.79 22.5624C164.419 24.0968 162.629 25.2592 160.42 26.0496C158.235 26.8168 155.782 27.2004 153.062 27.2004ZM184.871 18.2731C186.103 18.2731 187.056 18.0522 187.731 17.6105C188.405 17.1688 188.754 16.5643 188.777 15.7972L199.552 19.3193C199.134 20.7839 198.239 22.1207 196.867 23.3296C195.519 24.5152 193.81 25.4568 191.741 26.1542C189.672 26.8517 187.359 27.2004 184.801 27.2004C182.616 27.2004 180.57 26.9563 178.664 26.4681C176.781 25.9799 175.118 25.2475 173.677 24.2711C172.259 23.2714 171.143 22.0277 170.329 20.5398C169.516 19.0519 169.109 17.3199 169.109 15.3438C169.109 13.3677 169.516 11.6357 170.329 10.1478C171.143 8.65996 172.259 7.4278 173.677 6.45138C175.118 5.4517 176.792 4.70776 178.699 4.21955C180.605 3.73134 182.639 3.48723 184.801 3.48723C187.01 3.48723 189.032 3.73134 190.869 4.21955C192.729 4.70776 194.321 5.46333 195.647 6.48625C196.995 7.48592 198.03 8.76457 198.75 10.3222C199.494 11.8566 199.866 13.6816 199.866 15.7972H180.861C180.861 15.7972 180.849 15.7972 180.826 15.7972C180.826 15.7972 180.826 15.8088 180.826 15.832C180.826 16.1807 180.919 16.5062 181.105 16.8084C181.291 17.1107 181.547 17.378 181.872 17.6105C182.221 17.8197 182.639 17.9825 183.127 18.0987C183.639 18.215 184.22 18.2731 184.871 18.2731ZM184.801 12.3099C183.662 12.3099 182.721 12.5192 181.977 12.9376C181.233 13.3328 180.861 13.9024 180.861 14.6464C180.861 14.6696 180.861 14.6929 180.861 14.7161C180.884 14.7161 180.896 14.7161 180.896 14.7161H188.672C188.695 14.7161 188.707 14.7161 188.707 14.7161C188.707 14.6929 188.707 14.6696 188.707 14.6464C188.707 14.2744 188.602 13.9489 188.393 13.6699C188.207 13.3677 187.94 13.1236 187.591 12.9376C187.242 12.7284 186.824 12.5773 186.336 12.4843C185.871 12.368 185.359 12.3099 184.801 12.3099Z" fill="white"/>
</svg>
